<svg width="189" height="189" xmlns="http://www.w3.org/2000/svg" xmlns:xlink="http://www.w3.org/1999/xlink" xml:space="preserve" overflow="hidden"><g transform="translate(-173 -285)"><path d="M255.688 338.156 287.188 338.156 287.188 332.25C287.188 327.919 283.644 324.375 279.312 324.375L196.625 324.375C192.294 324.375 188.75 327.919 188.75 332.25L188.75 385.406C188.75 389.737 192.294 393.281 196.625 393.281L208.438 393.281 208.438 412.969 228.125 393.281 239.938 393.281 239.938 353.906C239.938 345.244 247.025 338.156 255.688 338.156Z" fill="#73992D"/><path d="M338.375 346.031 255.688 346.031C251.356 346.031 247.812 349.575 247.812 353.906L247.812 407.062C247.812 411.394 251.356 414.938 255.688 414.938L306.875 414.938 326.562 434.625 326.562 414.938 338.375 414.938C342.706 414.938 346.25 411.394 346.25 407.062L346.25 353.906C346.25 349.575 342.706 346.031 338.375 346.031Z" fill="#73992D"/></g></svg>