<svg width="189" height="189" xmlns="http://www.w3.org/2000/svg" xmlns:xlink="http://www.w3.org/1999/xlink" xml:space="preserve" overflow="hidden"><g transform="translate(-672 -276)"><path d="M679.875 331.125 679.875 409.875 853.125 409.875 853.125 331.125 679.875 331.125ZM841.312 398.062 691.688 398.062 691.688 342.938 841.312 342.938 841.312 398.062Z" fill="#73992D"/><path d="M699.562 366.562 790.125 366.562 790.125 374.438 699.562 374.438Z" fill="#73992D"/><path d="M699.562 350.812 735 350.812 735 358.688 699.562 358.688Z" fill="#73992D"/><path d="M798 362.625 833.438 362.625 833.438 374.438 798 374.438Z" fill="#73992D"/><path d="M788.55 385.069C788.156 385.462 787.566 386.25 787.172 386.644 786.975 386.447 786.778 386.053 786.384 385.856 784.219 383.888 781.659 383.494 778.312 385.069 776.344 385.856 775.95 385.462 775.95 385.266 774.769 383.494 772.209 383.1 770.438 384.281 768.666 385.462 768.272 388.022 769.453 389.794 772.209 393.534 776.541 394.322 781.463 392.156 781.463 392.156 781.463 392.156 781.463 392.156 782.053 393.141 783.431 394.519 786.188 394.716 786.384 394.716 786.581 394.716 786.778 394.716 790.519 394.716 793.078 391.959 794.456 390.188 794.85 389.597 795.244 389.203 795.638 388.809 796.819 387.628 798.591 386.841 800.559 386.25 800.756 389.006 802.134 391.172 804.497 392.353 807.056 393.731 810.403 393.534 813.159 391.763 813.75 391.369 814.144 390.975 814.734 390.581 814.734 390.581 814.931 390.384 814.931 390.384 815.128 390.581 815.522 390.778 815.719 390.975 817.884 392.353 820.641 392.156 822.019 391.959 823.003 391.959 827.531 391.959 827.531 391.959 827.531 391.959 827.531 391.959 827.531 391.959 829.697 391.959 831.469 390.188 831.469 388.022 831.469 385.856 829.697 384.084 827.531 384.084L824.578 384.084C823.397 384.084 822.019 384.084 821.034 384.281L821.034 384.084C820.641 384.084 820.05 384.084 819.656 384.084 819.656 384.084 819.459 383.888 819.459 383.888 818.475 383.1 816.309 381.525 813.356 382.312 811.584 382.706 810.403 383.691 809.616 384.478 809.419 384.675 809.222 384.872 809.025 385.069 808.828 385.069 808.828 385.266 808.631 385.266 808.828 384.084 809.025 382.312 808.041 380.541 806.662 378.375 804.3 377.587 800.559 378.178 796.622 378.966 793.078 380.541 790.519 382.903 789.731 383.691 789.141 384.478 788.55 385.069Z" fill="#73992D"/></g></svg>