<svg width="189" height="189" xmlns="http://www.w3.org/2000/svg" xmlns:xlink="http://www.w3.org/1999/xlink" xml:space="preserve" overflow="hidden"><g transform="translate(-932 -285)"><path d="M977.281 324.375 998.938 324.375 998.938 336.188 1054.06 336.188 1054.06 324.375 1075.72 324.375 1075.72 446.438 977.281 446.438 977.281 324.375ZM1026.7 308.625C1029.85 308.625 1032.41 311.381 1032.41 314.531 1032.41 317.878 1029.85 320.438 1026.5 320.438 1023.15 320.438 1020.59 317.878 1020.59 314.531 1020.59 311.184 1023.15 308.625 1026.7 308.625ZM965.469 320.438 965.469 450.375C965.469 454.706 969.013 458.25 973.344 458.25L1079.66 458.25C1083.99 458.25 1087.53 454.706 1087.53 450.375L1087.53 320.438C1087.53 316.106 1083.99 312.562 1079.66 312.562L1046.19 312.562 1046.19 308.625C1046.19 304.294 1042.64 300.75 1038.31 300.75L1014.69 300.75C1010.36 300.75 1006.81 304.294 1006.81 308.625L1006.81 312.562 973.344 312.562C969.013 312.562 965.469 316.106 965.469 320.438Z" fill="#73992D"/><path d="M989.094 351.938 1022.56 351.938 1022.56 359.812 989.094 359.812Z" fill="#73992D"/><path d="M989.094 375.562 1022.56 375.562 1022.56 383.438 989.094 383.438Z" fill="#73992D"/><path d="M989.094 399.188 1022.56 399.188 1022.56 407.062 989.094 407.062Z" fill="#73992D"/><path d="M989.094 422.812 1022.56 422.812 1022.56 430.688 989.094 430.688Z" fill="#73992D"/><path d="M1036.15 355.481 1040.28 351.347 1045.4 356.466 1058.39 343.472 1062.53 347.606 1045.4 364.734Z" fill="#73992D"/><path d="M1036.15 379.106 1040.28 374.972 1045.4 380.091 1058.39 367.097 1062.53 371.231 1045.4 388.359Z" fill="#73992D"/><path d="M1036.15 402.731 1040.28 398.597 1045.4 403.716 1058.39 390.722 1062.53 394.856 1045.4 411.984Z" fill="#73992D"/><path d="M1036.15 426.356 1040.28 422.222 1045.4 427.341 1058.39 414.347 1062.53 418.481 1045.4 435.609Z" fill="#73992D"/></g></svg>