<svg width="189" height="189" xmlns="http://www.w3.org/2000/svg" xmlns:xlink="http://www.w3.org/1999/xlink" xml:space="preserve" overflow="hidden"><g transform="translate(-428 -285)"><path d="M522.51 342.936C497.704 293.718 455.572 323.249 455.572 350.811 455.572 361.734 460.268 373.34 467.145 384.512 471.473 378.433 474.807 371.705 477.022 364.579 482.731 382.811 494.876 397.189 510.276 403.954 503.655 406.911 497.679 411.139 492.687 416.398 502.023 426.023 511.986 435.02 522.51 443.329 522.51 443.329 589.438 392.149 589.438 350.811 589.438 323.253 547.306 293.725 522.51 342.936ZM553.325 376.391C551.393 369.585 546.625 363.939 540.238 360.895 546.625 357.852 551.392 352.207 553.325 345.401 555.255 352.205 560.02 357.85 566.403 360.895 560.019 363.941 555.255 369.587 553.325 376.391Z" fill="#73992D"/><path d="M477.022 428.077C471.989 418.457 464.723 410.185 455.832 403.954 464.722 397.721 471.988 389.448 477.022 379.829 482.055 389.45 489.323 397.723 498.215 403.954 489.324 410.185 482.056 418.457 477.022 428.077Z" fill="#73992D"/></g></svg>